# xmcd
#
# Track frame offsets:
#	225
#	18120
#	32887
#	46879
#	69990
#	83426
#	101513
#	123560
#	149580
#	163793
#	184833
#	202999
#
# Disc length: 2941 seconds
#
# Revision: 1
# Processed by: cddbd v1.5.1PL2 Copyright (c) Steve Scherf et al.
# Submitted via: audiograbber 1.83.01
#
DISCID=9c0b7a0c
DTITLE=Drafi Deutscher - Original Neuaufnahmen
DYEAR=1900
DGENRE=Pop
TTITLE0=Wenn man liebt
TTITLE1=Amen
TTITLE2=Solange wir noch leben
TTITLE3=Geträumte Liebe
TTITLE4=Rock'n Roll Kids
TTITLE5=Es war dumm von mir
TTITLE6=Damals im Mai
TTITLE7=Mit verbundenen Augen
TTITLE8=Tiefes Wasser
TTITLE9=Für die Liebe meines Lebens
TTITLE10=Marmor, Stein und Eisen bricht
TTITLE11=Wann gehn wir nach San Francisco
EXTD=
EXTT0=
EXTT1=
EXTT2=
EXTT3=
EXTT4=
EXTT5=
EXTT6=
EXTT7=
EXTT8=
EXTT9=
EXTT10=
EXTT11=
PLAYORDER=
